<mxfile host="app.diagrams.net" agent="Mozilla/5.0 (Windows NT 10.0; Win64; x64) AppleWebKit/537.36 (KHTML, like Gecko) Chrome/131.0.0.0 Safari/537.36 Edg/131.0.0.0" version="24.8.6">
  <diagram name="第 1 页" id="Z3rtG_Gq0NtA4xSLIzVl">
    <mxGraphModel dx="1430" dy="354" grid="1" gridSize="10" guides="1" tooltips="1" connect="1" arrows="1" fold="1" page="1" pageScale="1" pageWidth="827" pageHeight="1169" math="0" shadow="0">
      <root>
        <mxCell id="0" />
        <mxCell id="1" parent="0" />
        <mxCell id="M6bnqnPYJq47VMzDSZT7-1" value="浏览器" style="rounded=0;whiteSpace=wrap;html=1;fillColor=#0050ef;fontColor=#ffffff;strokeColor=#001DBC;" vertex="1" parent="1">
          <mxGeometry x="150" y="70" width="200" height="30" as="geometry" />
        </mxCell>
        <UserObject label="http://localhost:8080/person/zbc.html" link="http://localhost:8080/person/zbc.html" id="M6bnqnPYJq47VMzDSZT7-8">
          <mxCell style="text;whiteSpace=wrap;html=1;" vertex="1" parent="1">
            <mxGeometry x="150" y="40" width="230" height="40" as="geometry" />
          </mxCell>
        </UserObject>
        <mxCell id="M6bnqnPYJq47VMzDSZT7-9" value="" style="shape=flexArrow;endArrow=classic;html=1;rounded=0;exitX=0.477;exitY=1.088;exitDx=0;exitDy=0;exitPerimeter=0;entryX=0.5;entryY=0;entryDx=0;entryDy=0;" edge="1" parent="1" target="M6bnqnPYJq47VMzDSZT7-11">
          <mxGeometry width="50" height="50" relative="1" as="geometry">
            <mxPoint x="249.70999999999998" y="99.99999999999999" as="sourcePoint" />
            <mxPoint x="249.70999999999998" y="140.82999999999998" as="targetPoint" />
          </mxGeometry>
        </mxCell>
        <mxCell id="M6bnqnPYJq47VMzDSZT7-11" value="解析出主机名localhost" style="rounded=0;whiteSpace=wrap;html=1;" vertex="1" parent="1">
          <mxGeometry x="150" y="139" width="200" height="30" as="geometry" />
        </mxCell>
        <mxCell id="M6bnqnPYJq47VMzDSZT7-13" value="到本机的Host文件去&lt;div&gt;查询主机名对应的IP&lt;/div&gt;" style="rounded=0;whiteSpace=wrap;html=1;" vertex="1" parent="1">
          <mxGeometry x="150" y="212" width="200" height="30" as="geometry" />
        </mxCell>
        <mxCell id="M6bnqnPYJq47VMzDSZT7-15" value="" style="shape=flexArrow;endArrow=classic;html=1;rounded=0;exitX=0.477;exitY=1.088;exitDx=0;exitDy=0;exitPerimeter=0;entryX=0.477;entryY=0.061;entryDx=0;entryDy=0;entryPerimeter=0;" edge="1" parent="1">
          <mxGeometry width="50" height="50" relative="1" as="geometry">
            <mxPoint x="250.10999999999999" y="169" as="sourcePoint" />
            <mxPoint x="249.71" y="212" as="targetPoint" />
          </mxGeometry>
        </mxCell>
        <mxCell id="M6bnqnPYJq47VMzDSZT7-18" value="" style="shape=flexArrow;endArrow=classic;html=1;rounded=0;exitX=0;exitY=0.5;exitDx=0;exitDy=0;" edge="1" parent="1" source="M6bnqnPYJq47VMzDSZT7-13">
          <mxGeometry width="50" height="50" relative="1" as="geometry">
            <mxPoint x="101.54285714285751" y="248.5" as="sourcePoint" />
            <mxPoint x="100" y="227" as="targetPoint" />
          </mxGeometry>
        </mxCell>
        <mxCell id="M6bnqnPYJq47VMzDSZT7-19" value="有" style="text;html=1;align=center;verticalAlign=middle;resizable=0;points=[];autosize=1;strokeColor=none;fillColor=none;" vertex="1" parent="1">
          <mxGeometry x="100" y="240" width="40" height="30" as="geometry" />
        </mxCell>
        <mxCell id="M6bnqnPYJq47VMzDSZT7-20" value="访问IP对应的机器" style="rounded=0;whiteSpace=wrap;html=1;" vertex="1" parent="1">
          <mxGeometry x="-20" y="212" width="120" height="30" as="geometry" />
        </mxCell>
        <mxCell id="M6bnqnPYJq47VMzDSZT7-21" value="" style="shape=flexArrow;endArrow=classic;html=1;rounded=0;exitX=0;exitY=0.5;exitDx=0;exitDy=0;" edge="1" parent="1">
          <mxGeometry width="50" height="50" relative="1" as="geometry">
            <mxPoint x="350" y="227.28142857142873" as="sourcePoint" />
            <mxPoint x="400" y="227.28142857142873" as="targetPoint" />
          </mxGeometry>
        </mxCell>
        <mxCell id="M6bnqnPYJq47VMzDSZT7-22" value="去外网的DNS查询" style="rounded=0;whiteSpace=wrap;html=1;" vertex="1" parent="1">
          <mxGeometry x="400" y="212" width="130" height="30" as="geometry" />
        </mxCell>
        <mxCell id="M6bnqnPYJq47VMzDSZT7-23" value="没有" style="text;html=1;align=center;verticalAlign=middle;resizable=0;points=[];autosize=1;strokeColor=none;fillColor=none;" vertex="1" parent="1">
          <mxGeometry x="350" y="240" width="50" height="30" as="geometry" />
        </mxCell>
        <mxCell id="M6bnqnPYJq47VMzDSZT7-24" value="" style="shape=flexArrow;endArrow=classic;html=1;rounded=0;exitX=0;exitY=0.5;exitDx=0;exitDy=0;" edge="1" parent="1">
          <mxGeometry width="50" height="50" relative="1" as="geometry">
            <mxPoint x="530" y="226.71142857142874" as="sourcePoint" />
            <mxPoint x="580" y="226.71142857142874" as="targetPoint" />
          </mxGeometry>
        </mxCell>
        <mxCell id="M6bnqnPYJq47VMzDSZT7-25" value="没有" style="text;html=1;align=center;verticalAlign=middle;resizable=0;points=[];autosize=1;strokeColor=none;fillColor=none;" vertex="1" parent="1">
          <mxGeometry x="520" y="188" width="50" height="30" as="geometry" />
        </mxCell>
        <mxCell id="M6bnqnPYJq47VMzDSZT7-26" value="提示网站找不到" style="rounded=0;whiteSpace=wrap;html=1;" vertex="1" parent="1">
          <mxGeometry x="580" y="212" width="110" height="30" as="geometry" />
        </mxCell>
        <mxCell id="M6bnqnPYJq47VMzDSZT7-27" value="" style="shape=flexArrow;endArrow=classic;html=1;rounded=0;exitX=0.562;exitY=1.072;exitDx=0;exitDy=0;exitPerimeter=0;" edge="1" parent="1">
          <mxGeometry width="50" height="50" relative="1" as="geometry">
            <mxPoint x="470.05999999999995" y="241.99999999999997" as="sourcePoint" />
            <mxPoint x="470" y="290" as="targetPoint" />
          </mxGeometry>
        </mxCell>
        <mxCell id="M6bnqnPYJq47VMzDSZT7-29" value="有" style="text;html=1;align=center;verticalAlign=middle;resizable=0;points=[];autosize=1;strokeColor=none;fillColor=none;" vertex="1" parent="1">
          <mxGeometry x="470" y="242" width="40" height="30" as="geometry" />
        </mxCell>
        <mxCell id="M6bnqnPYJq47VMzDSZT7-31" value="访问IP对应的机器" style="rounded=0;whiteSpace=wrap;html=1;" vertex="1" parent="1">
          <mxGeometry x="410" y="290" width="120" height="30" as="geometry" />
        </mxCell>
        <mxCell id="M6bnqnPYJq47VMzDSZT7-32" value="" style="endArrow=none;html=1;rounded=0;exitX=0;exitY=0.5;exitDx=0;exitDy=0;entryX=0.459;entryY=1.026;entryDx=0;entryDy=0;entryPerimeter=0;" edge="1" parent="1" source="M6bnqnPYJq47VMzDSZT7-31" target="M6bnqnPYJq47VMzDSZT7-20">
          <mxGeometry width="50" height="50" relative="1" as="geometry">
            <mxPoint x="-10" y="290" as="sourcePoint" />
            <mxPoint x="40" y="250" as="targetPoint" />
            <Array as="points">
              <mxPoint x="35" y="305" />
            </Array>
          </mxGeometry>
        </mxCell>
        <mxCell id="M6bnqnPYJq47VMzDSZT7-33" value="" style="shape=flexArrow;endArrow=classic;html=1;rounded=0;" edge="1" parent="1">
          <mxGeometry width="50" height="50" relative="1" as="geometry">
            <mxPoint x="210" y="305" as="sourcePoint" />
            <mxPoint x="210" y="350" as="targetPoint" />
          </mxGeometry>
        </mxCell>
        <mxCell id="M6bnqnPYJq47VMzDSZT7-34" value="尝试连接服务&lt;span data-darkreader-inline-color=&quot;&quot; data-darkreader-inline-bgcolor=&quot;&quot; style=&quot;background-color: initial; color: rgb(0, 0, 0); --darkreader-inline-bgcolor: initial; --darkreader-inline-color: #e8e6e3;&quot;&gt;器&lt;/span&gt;" style="rounded=0;whiteSpace=wrap;html=1;" vertex="1" parent="1">
          <mxGeometry x="150" y="350" width="120" height="30" as="geometry" />
        </mxCell>
        <mxCell id="M6bnqnPYJq47VMzDSZT7-35" value="" style="shape=flexArrow;endArrow=classic;html=1;rounded=0;entryX=0.5;entryY=0;entryDx=0;entryDy=0;" edge="1" parent="1" target="M6bnqnPYJq47VMzDSZT7-36">
          <mxGeometry width="50" height="50" relative="1" as="geometry">
            <mxPoint x="209.71" y="380" as="sourcePoint" />
            <mxPoint x="209.71" y="425" as="targetPoint" />
          </mxGeometry>
        </mxCell>
        <mxCell id="M6bnqnPYJq47VMzDSZT7-36" value="向tomcat发出http请求" style="rounded=0;whiteSpace=wrap;html=1;" vertex="1" parent="1">
          <mxGeometry x="150" y="430" width="120" height="30" as="geometry" />
        </mxCell>
        <mxCell id="M6bnqnPYJq47VMzDSZT7-37" value="回应" style="text;html=1;align=center;verticalAlign=middle;resizable=0;points=[];autosize=1;strokeColor=none;fillColor=none;" vertex="1" parent="1">
          <mxGeometry x="220" y="390" width="50" height="30" as="geometry" />
        </mxCell>
        <mxCell id="M6bnqnPYJq47VMzDSZT7-38" value="" style="shape=flexArrow;endArrow=classic;html=1;rounded=0;exitX=0;exitY=0.5;exitDx=0;exitDy=0;" edge="1" parent="1">
          <mxGeometry width="50" height="50" relative="1" as="geometry">
            <mxPoint x="270" y="444.7114285714287" as="sourcePoint" />
            <mxPoint x="320" y="444.7114285714287" as="targetPoint" />
          </mxGeometry>
        </mxCell>
        <mxCell id="M6bnqnPYJq47VMzDSZT7-39" value="解析出web应用" style="rounded=0;whiteSpace=wrap;html=1;" vertex="1" parent="1">
          <mxGeometry x="320" y="430" width="120" height="30" as="geometry" />
        </mxCell>
        <mxCell id="M6bnqnPYJq47VMzDSZT7-40" value="" style="shape=flexArrow;endArrow=classic;html=1;rounded=0;exitX=0;exitY=0.5;exitDx=0;exitDy=0;" edge="1" parent="1">
          <mxGeometry width="50" height="50" relative="1" as="geometry">
            <mxPoint x="440" y="444.7114285714287" as="sourcePoint" />
            <mxPoint x="490" y="444.7114285714287" as="targetPoint" />
          </mxGeometry>
        </mxCell>
        <mxCell id="M6bnqnPYJq47VMzDSZT7-41" value="解析出资源zbc.html" style="rounded=0;whiteSpace=wrap;html=1;" vertex="1" parent="1">
          <mxGeometry x="490" y="430" width="120" height="30" as="geometry" />
        </mxCell>
        <mxCell id="M6bnqnPYJq47VMzDSZT7-43" value="" style="shape=flexArrow;endArrow=classic;html=1;rounded=0;exitX=0;exitY=0.5;exitDx=0;exitDy=0;" edge="1" parent="1">
          <mxGeometry width="50" height="50" relative="1" as="geometry">
            <mxPoint x="610" y="444.7114285714287" as="sourcePoint" />
            <mxPoint x="660" y="444.7114285714287" as="targetPoint" />
          </mxGeometry>
        </mxCell>
        <mxCell id="M6bnqnPYJq47VMzDSZT7-45" style="edgeStyle=orthogonalEdgeStyle;rounded=0;orthogonalLoop=1;jettySize=auto;html=1;exitX=1;exitY=0.5;exitDx=0;exitDy=0;entryX=1;entryY=0.5;entryDx=0;entryDy=0;" edge="1" parent="1" source="M6bnqnPYJq47VMzDSZT7-44" target="M6bnqnPYJq47VMzDSZT7-1">
          <mxGeometry relative="1" as="geometry" />
        </mxCell>
        <mxCell id="M6bnqnPYJq47VMzDSZT7-44" value="获取zbc.html" style="rounded=0;whiteSpace=wrap;html=1;" vertex="1" parent="1">
          <mxGeometry x="660" y="430" width="120" height="30" as="geometry" />
        </mxCell>
        <mxCell id="M6bnqnPYJq47VMzDSZT7-46" value="&lt;font style=&quot;font-size: 10px;&quot;&gt;将结果以http响应的方式返回&lt;/font&gt;&lt;div style=&quot;font-size: 10px;&quot;&gt;&lt;font style=&quot;font-size: 10px;&quot;&gt;，&lt;/font&gt;&lt;/div&gt;&lt;div style=&quot;font-size: 10px;&quot;&gt;&lt;font style=&quot;font-size: 10px;&quot;&gt;解析返回的结果并显示&lt;/font&gt;&lt;/div&gt;" style="rounded=0;whiteSpace=wrap;html=1;direction=south;align=center;" vertex="1" parent="1">
          <mxGeometry x="807" y="90" width="20" height="350" as="geometry" />
        </mxCell>
      </root>
    </mxGraphModel>
  </diagram>
</mxfile>
